<?xml version="1.0" standalone="yes"?>

<svg version="1.1" viewBox="0.0 0.0 320.95538057742783 200.498687664042" fill="none" stroke="none" stroke-linecap="square" stroke-miterlimit="10" xmlns="http://www.w3.org/2000/svg" xmlns:xlink="http://www.w3.org/1999/xlink"><clipPath id="p.0"><path d="m0 0l320.95538 0l0 200.49869l-320.95538 0l0 -200.49869z" clip-rule="nonzero"></path></clipPath><g clip-path="url(#p.0)"><path fill="#000000" fill-opacity="0.0" d="m0 0l320.95538 0l0 200.49869l-320.95538 0z" fill-rule="evenodd"></path><path fill="#000000" fill-opacity="0.0" d="m80.00525 100.249344l0 0c0 -44.443703 36.02874 -80.47244 80.47244 -80.47244l0 0c21.34262 0 41.811096 8.478321 56.902603 23.569834c15.091507 15.091507 23.56984 35.559986 23.56984 56.902607l0 0c0 44.443695 -36.028748 80.47244 -80.47244 80.47244l0 0c-44.443703 0 -80.47244 -36.028748 -80.47244 -80.47244z" fill-rule="evenodd"></path><path stroke="#03a1e8" stroke-width="4.0" stroke-linejoin="round" stroke-linecap="butt" d="m80.00525 100.249344l0 0c0 -44.443703 36.02874 -80.47244 80.47244 -80.47244l0 0c21.34262 0 41.811096 8.478321 56.902603 23.569834c15.091507 15.091507 23.56984 35.559986 23.56984 56.902607l0 0c0 44.443695 -36.028748 80.47244 -80.47244 80.47244l0 0c-44.443703 0 -80.47244 -36.028748 -80.47244 -80.47244z" fill-rule="evenodd"></path><path fill="#000000" fill-opacity="0.0" d="m123.45407 51.934383l74.04724 0l0 96.62991l-74.04724 0z" fill-rule="evenodd"></path><path fill="#666666" d="m178.85901 124.93438l-6.3125 0l0 -22.015625l-24.015625 0l0 22.015625l-6.28125 0l0 -47.640625l6.28125 0l0 20.484375l24.015625 0l0 -20.484375l6.3125 0l0 47.640625z" fill-rule="nonzero"></path></g></svg>

